<svg style="display: none;" aria-hidden="true" xmlns="http://www.w3.org/2000/svg" xmlns:xlink="http://www.w3.org/1999/xlink"><symbol viewBox="0 0 16 9" fill="none" id="svg-Line_(Stroke)"><path fill-rule="evenodd" clip-rule="evenodd" d="M0.292893 8.70711C-0.0976311 8.31658 -0.0976311 7.68342 0.292893 7.29289L7.29289 0.292893C7.68342 -0.0976315 8.31658 -0.0976315 8.70711 0.292893L15.7071 7.29289C16.0976 7.68342 16.0976 8.31658 15.7071 8.70711C15.3166 9.09763 14.6834 9.09763 14.2929 8.70711L8 2.41421L1.70711 8.70711C1.31658 9.09763 0.683417 9.09763 0.292893 8.70711Z" fill="#fff"/></symbol><symbol viewBox="0 0 19 22" fill="none" id="svg-Polygon"><path d="M18.5 10.134C19.1667 10.5189 19.1667 11.4811 18.5 11.866L2 21.3923C1.33333 21.7772 0.499999 21.2961 0.499999 20.5263L0.5 1.47372C0.5 0.703921 1.33333 0.222794 2 0.607695L18.5 10.134Z" fill="#fff"/></symbol><symbol viewBox="0 0 24 24" fill="none" id="svg-Right"><path fill-rule="evenodd" clip-rule="evenodd" d="M14.7929 6.79289C15.1834 6.40237 15.8166 6.40237 16.2071 6.79289L20.7071 11.2929C21.0976 11.6834 21.0976 12.3166 20.7071 12.7071L16.2071 17.2071C15.8166 17.5976 15.1834 17.5976 14.7929 17.2071C14.4024 16.8166 14.4024 16.1834 14.7929 15.7929L17.5858 13H4C3.44772 13 3 12.5523 3 12C3 11.4477 3.44772 11 4 11H17.5858L14.7929 8.20711C14.4024 7.81658 14.4024 7.18342 14.7929 6.79289Z" fill="#424551"/></symbol><symbol viewBox="0 0 20 20" fill="none" id="svg-WhatsApp"><path d="M20 9.74244C20 15.1231 15.6047 19.4849 10.1818 19.4849C8.46022 19.4849 6.84289 19.0449 5.43578 18.2727L0 20L1.77222 14.7729C0.878222 13.3049 0.363333 11.5831 0.363333 9.74244C0.363333 4.36178 4.75911 0 10.1818 0C15.6051 0 20 4.36178 20 9.74244ZM10.1818 1.55156C5.62978 1.55156 1.92711 5.226 1.92711 9.74244C1.92711 11.5347 2.51133 13.1944 3.49956 14.5447L2.46822 17.5867L5.64044 16.5784C6.94378 17.4342 8.50511 17.9333 10.182 17.9333C14.7333 17.9333 18.4367 14.2593 18.4367 9.74289C18.4367 5.22644 14.7336 1.55156 10.1818 1.55156ZM15.1398 11.9862C15.0791 11.8869 14.9189 11.8269 14.6784 11.7076C14.4376 11.5882 13.254 11.0102 13.034 10.9309C12.8133 10.8513 12.6524 10.8113 12.4922 11.0502C12.332 11.2893 11.8707 11.8269 11.73 11.9862C11.5896 12.146 11.4493 12.166 11.2084 12.0464C10.968 11.9271 10.1927 11.6747 9.27333 10.8613C8.558 10.2284 8.07489 9.44711 7.93444 9.20778C7.79422 8.96889 7.91978 8.83978 8.04 8.72089C8.14844 8.61378 8.28089 8.442 8.40111 8.30267C8.52178 8.16311 8.56178 8.06378 8.64156 7.90422C8.72222 7.74489 8.682 7.60556 8.62156 7.48578C8.56156 7.36644 8.07978 6.19133 7.87933 5.71311C7.67889 5.23533 7.47867 5.31489 7.338 5.31489C7.19778 5.31489 7.03711 5.29489 6.87667 5.29489C6.71622 5.29489 6.45533 5.35467 6.23467 5.59356C6.01422 5.83267 5.39267 6.41044 5.39267 7.58533C5.39267 8.76044 6.25467 9.89578 6.37533 10.0549C6.49556 10.214 8.03978 12.7038 10.4864 13.66C12.9333 14.6158 12.9333 14.2969 13.3747 14.2569C13.8156 14.2171 14.7982 13.6793 14.9996 13.122C15.1996 12.5638 15.1996 12.0858 15.1398 11.9862Z" fill="#fff"/></symbol><symbol viewBox="0 0 1 188" fill="none" id="svg-border-right"><path fill-rule="evenodd" clip-rule="evenodd" d="M8.21774e-06 188L0 4.37114e-08L1 0L1.00001 188L8.21774e-06 188Z" fill="url(#epaint0_linear_26216_2348)"/><defs><linearGradient id="epaint0_linear_26216_2348" x1="0" y1="188" x2="3.533" y2=".048" gradientUnits="userSpaceOnUse"><stop stop-color="#DADBDD" stop-opacity="0"/><stop offset=".123" stop-color="#DADBDD" stop-opacity=".5"/><stop offset=".519" stop-color="#DADBDD"/><stop offset=".878" stop-color="#DADBDD" stop-opacity=".5"/><stop offset="1" stop-color="#DADBDD" stop-opacity="0"/></linearGradient></defs></symbol><symbol viewBox="0 0 10 8" fill="none" id="svg-check"><path fill-rule="evenodd" clip-rule="evenodd" d="M9.82771 0.195262C10.0574 0.455612 10.0574 0.877722 9.82771 1.13807L3.94536 7.80474C3.71564 8.06509 3.34319 8.06509 3.11347 7.80474L0.17229 4.4714C-0.05743 4.21105 -0.05743 3.78894 0.17229 3.5286C0.40201 3.26825 0.77446 3.26825 1.00418 3.5286L3.52941 6.39052L8.99582 0.195262C9.22554 -0.0650874 9.59799 -0.0650874 9.82771 0.195262Z" fill="#fff"/></symbol><symbol viewBox="0 0 12 22" fill="none" id="svg-facebook"><path d="M11.5628 0.00457747L8.78558 0C5.66542 0 3.64903 2.12509 3.64903 5.41423V7.91055H0.85662C0.615322 7.91055 0.419922 8.1115 0.419922 8.35937V11.9763C0.419922 12.2241 0.615545 12.4249 0.85662 12.4249H3.64903V21.5514C3.64903 21.7993 3.84443 22 4.08573 22H7.72904C7.97033 22 8.16573 21.799 8.16573 21.5514V12.4249H11.4307C11.672 12.4249 11.8674 12.2241 11.8674 11.9763L11.8688 8.35937C11.8688 8.24036 11.8226 8.12638 11.7409 8.04215C11.6591 7.95793 11.5477 7.91055 11.4318 7.91055H8.16573V5.79439C8.16573 4.77727 8.40168 4.26094 9.6915 4.26094L11.5624 4.26025C11.8035 4.26025 11.9989 4.0593 11.9989 3.81166V0.453169C11.9989 0.205757 11.8037 0.00503521 11.5628 0.00457747Z" fill="#fff"/></symbol><symbol viewBox="0 0 130 22" fill="none" id="svg-logo"><g clip-path="url(#hclip0_1682_0)"><path d="M0 11.0998C0 4.9998 3.3 1.2998 8.7 1.2998 12.8 1.2998 16.1 3.7998 16.7 7.4998 16.8 7.8998 16.5 8.1998 16.1 8.1998H13.5C13.2 8.1998 13 7.9998 12.9 7.6998 12.4 5.7998 10.8 4.5998 8.7 4.5998 5.8 4.5998 4 7.0998 4 11.0998 4 15.0998 5.8 17.5998 8.8 17.5998 10.9 17.5998 12.4 16.4998 13 14.6998 13.1 14.3998 13.3 14.1998 13.6 14.1998H16.2C16.6 14.1998 16.9 14.5998 16.8 14.8998 16.2 18.4998 13 20.8998 8.8 20.8998 3.3 20.8998 0 17.0998 0 11.0998zM24.2997 20.4001H21.3997C21.0997 20.4001 20.8997 20.2001 20.8997 19.9001V2.60006C20.8997 2.20006 21.2997 1.80006 21.6997 1.80006H28.6997C32.7997 1.80006 35.2997 4.10006 35.2997 7.70006 35.2997 9.80006 34.2997 11.7001 32.5997 12.7001 32.1997 12.9001 32.0997 13.4001 32.2997 13.7001L35.3997 19.6001C35.5997 19.9001 35.2997 20.3001 34.9997 20.3001H31.6997C31.4997 20.3001 31.2997 20.2001 31.1997 20.0001L28.2997 14.0001C28.1997 13.7001 27.8997 13.6001 27.5997 13.6001H25.2997C24.9997 13.6001 24.7997 13.8001 24.7997 14.1001V20.0001C24.8997 20.2001 24.5997 20.4001 24.2997 20.4001zM24.8997 10.2001C24.8997 10.5001 25.0997 10.7001 25.3997 10.7001H28.3997C30.3997 10.7001 31.4997 9.60006 31.4997 7.80006 31.4997 6.00006 30.2997 4.90006 28.3997 4.90006H25.4997C25.1997 4.90006 24.9997 5.10006 24.9997 5.40006V10.2001H24.8997zM51.4998 20.4001H40.4998C40.0998 20.4001 39.7998 20.1001 39.7998 19.7001V2.50006C39.7998 2.10006 40.0998 1.80006 40.4998 1.80006H51.4998C51.8998 1.80006 52.1998 2.10006 52.1998 2.50006V4.40006C52.1998 4.80006 51.8998 5.10006 51.4998 5.10006H44.1998C43.8998 5.10006 43.6998 5.30006 43.6998 5.60006V9.00006C43.6998 9.30006 43.8998 9.50006 44.1998 9.50006H50.9998C51.3998 9.50006 51.6998 9.80006 51.6998 10.2001V11.9001C51.6998 12.3001 51.3998 12.6001 50.9998 12.6001H44.1998C43.8998 12.6001 43.6998 12.8001 43.6998 13.1001V16.9001C43.6998 17.2001 43.8998 17.4001 44.1998 17.4001H51.4998C51.8998 17.4001 52.1998 17.7001 52.1998 18.1001V20.0001C52.1998 20.1001 51.8998 20.4001 51.4998 20.4001zM66.9999 15.9001H61.2999C60.9999 15.9001 60.7999 16.1001 60.6999 16.3001L59.5999 20.0001C59.4999 20.3001 59.2999 20.4001 58.9999 20.4001H56.3999C55.9999 20.4001 55.6999 20.0001 55.7999 19.6001L61.7999 2.20006C61.8999 2.00006 62.0999 1.80006 62.3999 1.80006H66.0999C66.3999 1.80006 66.5999 2.00006 66.6999 2.20006L72.6999 19.6001C72.7999 20.0001 72.4999 20.4001 72.0999 20.4001H69.1999C68.8999 20.4001 68.6999 20.2001 68.5999 20.0001L67.4999 16.3001C67.4999 16.1001 67.1999 15.9001 66.9999 15.9001zM62.0999 13.0001H66.1999C66.3999 13.0001 66.4999 12.8001 66.4999 12.6001L64.2999 5.60006H64.0999L61.8999 12.6001C61.7999 12.8001 61.8999 13.0001 62.0999 13.0001zM79.0001 19.7005V5.50045C79.0001 5.20045 78.8001 5.00045 78.5001 5.00045H74.1001C73.7001 5.00045 73.3001 4.70045 73.3001 4.20045V2.50045C73.3001 2.10045 73.6001 1.70045 74.1001 1.70045H87.7001C88.1001 1.70045 88.5001 2.00045 88.5001 2.50045V4.20045C88.5001 4.60045 88.2001 5.00045 87.7001 5.00045H83.3001C83.0001 5.00045 82.8001 5.20045 82.8001 5.50045V19.8004C82.8001 20.2004 82.5001 20.5005 82.1001 20.5005H79.6001C79.3001 20.4004 79.0001 20.1005 79.0001 19.7005zM103.8 20.4001H92.7999C92.3999 20.4001 92.0999 20.1001 92.0999 19.7001V2.50006C92.0999 2.10006 92.3999 1.80006 92.7999 1.80006H103.8C104.2 1.80006 104.5 2.10006 104.5 2.50006V4.40006C104.5 4.80006 104.2 5.10006 103.8 5.10006H96.4999C96.1999 5.10006 95.9999 5.30006 95.9999 5.60006V9.00006C95.9999 9.30006 96.1999 9.50006 96.4999 9.50006H103.3C103.7 9.50006 104 9.80006 104 10.2001V11.9001C104 12.3001 103.7 12.6001 103.3 12.6001H96.4999C96.1999 12.6001 95.9999 12.8001 95.9999 13.1001V16.9001C95.9999 17.2001 96.1999 17.4001 96.4999 17.4001H103.8C104.2 17.4001 104.5 17.7001 104.5 18.1001V20.0001C104.5 20.1001 104.2 20.4001 103.8 20.4001z" fill="#1E212C"/><path d="M117.7 9.7L111.5 1.6C111.1 1.2 110.6 1 110.1 1 109.6 1 109.1 1.2 108.7 1.6 108 2.4 108 3.6 108.7 4.4L113.6 11 108.7 17.6C108 18.4 108 19.6 108.7 20.4 109.1 20.8 109.6 21 110.1 21 110.6 21 111.1 20.8 111.5 20.4L117.7 12.3C118.4 11.7 118.4 10.5 117.7 9.7zM120.343 9.7L126.543 1.6C126.943 1.2 127.443 1 127.943 1 128.443 1 128.943 1.2 129.343 1.6 130.043 2.4 130.043 3.6 129.343 4.4L124.443 11 129.343 17.6C130.043 18.4 130.043 19.6 129.343 20.4 128.943 20.8 128.443 21 127.943 21 127.443 21 126.943 20.8 126.543 20.4L120.343 12.3C119.643 11.7 119.643 10.5 120.343 9.7z" fill="#FF5A30"/></g><defs><clipPath id="hclip0_1682_0"><path fill="#fff" d="M0 0H130V22H0z"/></clipPath></defs></symbol><symbol viewBox="0 0 142 24" fill="none" id="svg-logo-footer"><g clip-path="url(#iclip0_26393_3020)"><path d="M0 12.1089C0 5.45433 3.60461 1.41797 9.50308 1.41797 13.9815 1.41797 17.5862 4.14524 18.2415 8.18161 18.3508 8.61797 18.0231 8.94524 17.5862 8.94524H14.7462C14.4185 8.94524 14.2 8.72706 14.0908 8.39979 13.5446 6.32706 11.7969 5.01797 9.50308 5.01797 6.33538 5.01797 4.36923 7.74524 4.36923 12.1089 4.36923 16.4725 6.33538 19.1998 9.61231 19.1998 11.9062 19.1998 13.5446 17.9998 14.2 16.0362 14.3092 15.7089 14.5277 15.4907 14.8554 15.4907H17.6954C18.1323 15.4907 18.46 15.9271 18.3508 16.2543 17.6954 20.1816 14.2 22.7998 9.61231 22.7998 3.60462 22.7998 0 18.6543 0 12.1089zM26.5428 22.2546H23.3751C23.0474 22.2546 22.8289 22.0364 22.8289 21.7092V2.83643C22.8289 2.40007 23.2659 1.9637 23.7028 1.9637H31.3489C35.8274 1.9637 38.5582 4.47279 38.5582 8.40007 38.5582 10.691 37.4659 12.7637 35.6089 13.8546 35.172 14.0728 35.0628 14.6182 35.2812 14.9455L38.6674 21.3819C38.8859 21.7092 38.5582 22.1455 38.2305 22.1455H34.6259C34.4074 22.1455 34.1889 22.0364 34.0797 21.8182L30.912 15.2728C30.8028 14.9455 30.4751 14.8364 30.1474 14.8364H27.6351C27.3074 14.8364 27.0889 15.0546 27.0889 15.3819V21.8182C27.1982 22.0364 26.8705 22.2546 26.5428 22.2546zM27.1982 11.1273C27.1982 11.4546 27.4166 11.6728 27.7443 11.6728H31.0212C33.2059 11.6728 34.4074 10.4728 34.4074 8.50916 34.4074 6.54552 33.0966 5.34552 31.0212 5.34552H27.8535C27.5259 5.34552 27.3074 5.5637 27.3074 5.89098V11.1273H27.1982zM56.2537 22.2546H44.2383C43.8014 22.2546 43.4737 21.9273 43.4737 21.491V2.72734C43.4737 2.29098 43.8014 1.9637 44.2383 1.9637H56.2537C56.6906 1.9637 57.0183 2.29098 57.0183 2.72734V4.80007C57.0183 5.23643 56.6906 5.5637 56.2537 5.5637H48.2798C47.9521 5.5637 47.7337 5.78188 47.7337 6.10916V9.81825C47.7337 10.1455 47.9521 10.3637 48.2798 10.3637H55.7075C56.1445 10.3637 56.4721 10.691 56.4721 11.1273V12.9819C56.4721 13.4182 56.1445 13.7455 55.7075 13.7455H48.2798C47.9521 13.7455 47.7337 13.9637 47.7337 14.291V18.4364C47.7337 18.7637 47.9521 18.9819 48.2798 18.9819H56.2537C56.6906 18.9819 57.0183 19.3092 57.0183 19.7455V21.8182C57.0183 21.9273 56.6906 22.2546 56.2537 22.2546zM73.1846 17.3455H66.9584C66.6307 17.3455 66.4123 17.5637 66.303 17.7819L65.1015 21.8182C64.9923 22.1455 64.7738 22.2546 64.4461 22.2546H61.6061C61.1692 22.2546 60.8415 21.8182 60.9507 21.3819L67.5046 2.40007C67.6138 2.18189 67.8323 1.9637 68.16 1.9637H72.2015C72.5292 1.9637 72.7476 2.18189 72.8569 2.40007L79.4107 21.3819C79.5199 21.8182 79.1923 22.2546 78.7553 22.2546H75.5876C75.2599 22.2546 75.0415 22.0364 74.9323 21.8182L73.7307 17.7819C73.7307 17.5637 73.403 17.3455 73.1846 17.3455zM67.8323 14.1819H72.3107C72.5292 14.1819 72.6384 13.9637 72.6384 13.7455L70.2353 6.10916H70.0169L67.6138 13.7455C67.5046 13.9637 67.6138 14.1819 67.8323 14.1819zM86.2925 21.4914V6.00049C86.2925 5.67322 86.074 5.45504 85.7463 5.45504H80.9402C80.5033 5.45504 80.0663 5.12777 80.0663 4.58231V2.72777C80.0663 2.2914 80.394 1.85504 80.9402 1.85504H95.7955C96.2324 1.85504 96.6694 2.18231 96.6694 2.72777V4.58231C96.6694 5.01867 96.3417 5.45504 95.7955 5.45504H90.9894C90.6617 5.45504 90.4432 5.67322 90.4432 6.00049V21.6005C90.4432 22.0369 90.1155 22.3641 89.6786 22.3641H86.9479C86.6202 22.255 86.2925 21.9278 86.2925 21.4914zM113.381 22.2546H101.366C100.929 22.2546 100.601 21.9273 100.601 21.491V2.72734C100.601 2.29098 100.929 1.9637 101.366 1.9637H113.381C113.818 1.9637 114.146 2.29098 114.146 2.72734V4.80007C114.146 5.23643 113.818 5.5637 113.381 5.5637H105.408C105.08 5.5637 104.861 5.78188 104.861 6.10916V9.81825C104.861 10.1455 105.08 10.3637 105.408 10.3637H112.835C113.272 10.3637 113.6 10.691 113.6 11.1273V12.9819C113.6 13.4182 113.272 13.7455 112.835 13.7455H105.408C105.08 13.7455 104.861 13.9637 104.861 14.291V18.4364C104.861 18.7637 105.08 18.9819 105.408 18.9819H113.381C113.818 18.9819 114.146 19.3092 114.146 19.7455V21.8182C114.146 21.9273 113.818 22.2546 113.381 22.2546z" fill="#fff"/><path d="M128.564 10.5827L121.792 1.74634C121.355 1.30998 120.809 1.0918 120.263 1.0918 119.717 1.0918 119.171 1.30998 118.734 1.74634 117.969 2.61907 117.969 3.92816 118.734 4.80089L124.086 12.0009 118.734 19.2009C117.969 20.0736 117.969 21.3827 118.734 22.2554 119.171 22.6918 119.717 22.91 120.263 22.91 120.809 22.91 121.355 22.6918 121.792 22.2554L128.564 13.4191C129.329 12.7645 129.329 11.4554 128.564 10.5827zM131.451 10.5827L138.223 1.74634C138.66 1.30998 139.207 1.0918 139.753 1.0918 140.299 1.0918 140.845 1.30998 141.282 1.74634 142.047 2.61907 142.047 3.92816 141.282 4.80089L135.93 12.0009 141.282 19.2009C142.047 20.0736 142.047 21.3827 141.282 22.2554 140.845 22.6918 140.299 22.91 139.753 22.91 139.207 22.91 138.66 22.6918 138.223 22.2554L131.451 13.4191C130.686 12.7645 130.686 11.4554 131.451 10.5827z" fill="#FF5A30"/></g><defs><clipPath id="iclip0_26393_3020"><path fill="#fff" d="M0 0H142V24H0z"/></clipPath></defs></symbol><symbol viewBox="0 0 20 20" fill="none" id="svg-message"><path d="M10 0C4.4775 0 0 4.145 0 9.25875C0 12.1725 1.45375 14.7713 3.72625 16.4688V20L7.13125 18.1313C8.04 18.3825 9.0025 18.5187 10 18.5187C15.5225 18.5187 20 14.3738 20 9.26C20 4.14625 15.5225 0 10 0ZM10.9938 12.4688L8.4475 9.7525L3.47875 12.4688L8.945 6.66625L11.5538 9.3825L16.46 6.66625L10.9938 12.4688Z" fill="#fff"/></symbol><symbol viewBox="0 0 24 38" fill="none" id="svg-phone"><path fill-rule="evenodd" clip-rule="evenodd" d="M6.16634 3.86947C4.78563 3.86947 3.66634 4.98875 3.66634 6.36947V31.6299C3.66634 33.0106 4.78563 34.1299 6.16634 34.1299H17.833C19.2137 34.1299 20.333 33.0106 20.333 31.6299V6.36947C20.333 4.98875 19.2137 3.86947 17.833 3.86947H17.694L17.2881 4.84355C17.0293 5.46458 16.4225 5.86909 15.7497 5.86909H8.24968C7.57688 5.86909 6.97006 5.46458 6.71126 4.84355L6.30531 3.86947H6.16634ZM0.333008 6.36947C0.333008 3.14781 2.94468 0.536133 6.16634 0.536133H17.833C21.0547 0.536133 23.6663 3.14781 23.6663 6.36947V31.6299C23.6663 34.8515 21.0547 37.4632 17.833 37.4632H6.16634C2.94468 37.4632 0.333008 34.8515 0.333008 31.6299V6.36947Z" fill="#FF5A30"/></symbol><symbol viewBox="0 0 22 18" fill="none" id="svg-twitter"><path d="M21.5 2.77233C20.7271 3.10027 19.8978 3.32267 19.0264 3.42196C19.9161 2.91181 20.5972 2.10263 20.92 1.1414C20.0854 1.61383 19.1642 1.95688 18.1826 2.14285C17.3966 1.33994 16.2785 0.839844 15.0384 0.839844C12.6593 0.839844 10.7303 2.68691 10.7303 4.9637C10.7303 5.2866 10.7683 5.60199 10.8418 5.90357C7.26201 5.73141 4.08768 4.08917 1.96314 1.59372C1.59176 2.20189 1.38049 2.91053 1.38049 3.66697C1.38049 5.09814 2.14161 6.36093 3.2964 7.09973C2.5904 7.07712 1.92639 6.89116 1.34508 6.58205V6.63357C1.34508 8.63141 2.83056 10.2988 4.80024 10.6783C4.43936 10.7713 4.05882 10.8228 3.66514 10.8228C3.38696 10.8228 3.11794 10.7964 2.85417 10.7461C3.40267 12.3859 4.99315 13.5783 6.87756 13.611C5.40388 14.7167 3.54573 15.3739 1.52749 15.3739C1.17976 15.3739 0.837236 15.3537 0.5 15.3173C2.40671 16.4896 4.67036 17.1732 7.10327 17.1732C15.028 17.1732 19.3597 10.8881 19.3597 5.43741L19.3453 4.90341C20.1917 4.32537 20.9239 3.59912 21.5 2.77233Z" fill="#fff"/></symbol><symbol viewBox="0 0 20 20" fill="none" id="svg-volumeOff"><path fill-rule="evenodd" clip-rule="evenodd" d="M12.0003 15.5827C12.5837 15.9994 13.3337 15.666 13.3337 14.916V11.166L10.2503 14.2493 12.0003 15.5827zM17.2503 4.41602C16.917 4.08268 16.417 4.08268 16.0837 4.41602L13.3337 7.16602V5.08268C13.3337 4.41602 12.5003 3.99935 12.0003 4.41602L9.66699 6.33268C9.33366 6.49935 9.00033 6.66602 8.58366 6.66602H6.66699C5.75033 6.66602 5.00033 7.41602 5.00033 8.33268V11.666C5.00033 12.5827 5.75033 13.3327 6.66699 13.3327H7.16699L4.41699 16.0827C4.08366 16.416 4.08366 16.916 4.41699 17.2494 4.75033 17.5827 5.25033 17.5827 5.58366 17.2494L17.2503 5.58268C17.5837 5.24935 17.5837 4.74935 17.2503 4.41602z" fill="#fff"/></symbol><symbol viewBox="0 0 24 18" fill="none" id="svg-youtube"><path fill-rule="evenodd" clip-rule="evenodd" d="M21.3903 1.11358C22.4182 1.39044 23.2288 2.20086 23.5055 3.22899C24.0197 5.10691 23.9999 9.02132 23.9999 9.02132C23.9999 9.02132 23.9999 12.9158 23.5057 14.7939C23.2288 15.8218 22.4184 16.6324 21.3903 16.9091C19.5122 17.4035 12 17.4035 12 17.4035C12 17.4035 4.50731 17.4035 2.60961 16.8895C1.58148 16.6127 0.771054 15.802 0.4942 14.7741C0 12.9158 0 9.00154 0 9.00154C0 9.00154 0 5.10691 0.4942 3.22899C0.770871 2.20104 1.60125 1.37066 2.60943 1.09399C4.48753 0.599609 11.9998 0.599609 11.9998 0.599609C11.9998 0.599609 19.5122 0.599609 21.3903 1.11358ZM15.8549 9.00158L9.60788 12.5996V5.40355L15.8549 9.00158Z" fill="#fff"/></symbol></svg>